# xmcd
#
# Track frame offsets:
#	150
#	15372
#	26970
#	41927
#	56545
#	67965
#	82710
#	101590
#	113395
#	126800
#	138287
#	151427
#	164462
#	177032
#	190987
#	209377
#	222332
#	232685
#
# Disc length: 3279 seconds
#
# Revision: 0
# Processed by: cddbd v1.4PL0 Copyright (c) Steve Scherf et al.
# Submitted via: dBpowerAMP V4.0
#
DISCID=e70ccd12
DTITLE=Varios/The Best Country Album in The World Ever - The Best Country Album in The World Ever
DYEAR=1997
DGENRE=Country
TTITLE0=Queen of Hearts/ Juice Newton
TTITLE1=All i Have to do is Dream/ Bobbie Gentry and Glen Campbell
TTITLE2=I Will Survive/ Billi jo Spears
TTITLE3=Rhinestone Cowboy/ Glen Campbell
TTITLE4=Don't it Make my Brown Eyes Blue/ Crystall Gayle
TTITLE5=Banks of The Ohio/ Olivia Newton John
TTITLE6=Wichita Lineman/ Jimmy Webb
TTITLE7=Silver Threads And Golden Needle/ Wanda Jckson
TTITLE8=It Dosen't Matter Anymore/ Paul Anka
TTITLE9=The Minute You're Gonna/ Sonny James
TTITLE10=Sharing The Night Together/ Dr. Hook
TTITLE11=Don't Stoppin Your Heart/ Marie Osmond
TTITLE12=Dady and Home/ Tanya Tucker
TTITLE13=Raindrops Keep Falling on my Head/ Bobbie Gentry
TTITLE14=I Just Had You on my Mind/ Billy Crash Craddock
TTITLE15=Crazy/ Willie Nelson
TTITLE16=King of The Road/ Tennessee Ernie Ford
TTITLE17=Baby's Got Her Blue Jeans on/ Mel Mcdniel
EXTD=
EXTT0=
EXTT1=
EXTT2=
EXTT3=
EXTT4=
EXTT5=
EXTT6=
EXTT7=
EXTT8=
EXTT9=
EXTT10=
EXTT11=
EXTT12=
EXTT13=
EXTT14=
EXTT15=
EXTT16=
EXTT17=
PLAYORDER=
